<svg width="680" height="150" viewBox="0 0 680 150" fill="none" xmlns="http://www.w3.org/2000/svg">
<path d="M48.3158 24.3636C48.2561 23.8598 48.0142 23.4688 47.5899 23.1903C47.1657 22.9119 46.6453 22.7727 46.0289 22.7727C45.5781 22.7727 45.1837 22.8456 44.8456 22.9915C44.5109 23.1373 44.249 23.3378 44.0601 23.593C43.8745 23.8482 43.7817 24.1383 43.7817 24.4631C43.7817 24.7348 43.8463 24.9685 43.9756 25.1641C44.1082 25.3563 44.2772 25.517 44.4827 25.6463C44.6882 25.7723 44.9036 25.8767 45.129 25.9595C45.3544 26.0391 45.5615 26.1037 45.7504 26.1534L46.7845 26.4318C47.0497 26.5014 47.3447 26.5975 47.6695 26.7202C47.9976 26.8428 48.3108 27.0102 48.6091 27.2223C48.9107 27.4311 49.1593 27.6996 49.3548 28.0277C49.5504 28.3558 49.6482 28.7585 49.6482 29.2358C49.6482 29.786 49.504 30.2831 49.2156 30.7273C48.9306 31.1714 48.513 31.5244 47.9628 31.7862C47.4159 32.0481 46.7514 32.179 45.9692 32.179C45.24 32.179 44.6086 32.0613 44.075 31.826C43.5447 31.5907 43.1271 31.2625 42.8222 30.8416C42.5206 30.4207 42.3499 29.9318 42.3101 29.375H43.5828C43.616 29.7595 43.7452 30.0777 43.9706 30.3295C44.1993 30.5781 44.4877 30.7637 44.8357 30.8864C45.187 31.0057 45.5648 31.0653 45.9692 31.0653C46.4398 31.0653 46.8624 30.9891 47.2369 30.8366C47.6115 30.6809 47.9081 30.4654 48.1269 30.1903C48.3456 29.9119 48.455 29.5871 48.455 29.2159C48.455 28.8778 48.3605 28.6027 48.1716 28.3906C47.9827 28.1785 47.7341 28.0062 47.4259 27.8736C47.1176 27.741 46.7845 27.625 46.4266 27.5256L45.1737 27.1676C44.3783 26.9389 43.7486 26.6125 43.2845 26.1882C42.8205 25.764 42.5885 25.2088 42.5885 24.5227C42.5885 23.9527 42.7426 23.4555 43.0509 23.0312C43.3624 22.6037 43.78 22.2723 44.3037 22.0369C44.8307 21.7983 45.419 21.679 46.0686 21.679C46.7249 21.679 47.3082 21.7966 47.8186 22.032C48.329 22.264 48.7334 22.5821 49.0317 22.9865C49.3333 23.3909 49.4924 23.8499 49.509 24.3636H48.3158ZM51.5162 32V24.3636H52.6895V32H51.5162ZM52.1128 23.0909C51.8841 23.0909 51.6869 23.013 51.5212 22.8572C51.3588 22.7015 51.2776 22.5142 51.2776 22.2955C51.2776 22.0767 51.3588 21.8894 51.5212 21.7337C51.6869 21.5779 51.8841 21.5 52.1128 21.5C52.3415 21.5 52.5371 21.5779 52.6995 21.7337C52.8652 21.8894 52.9481 22.0767 52.9481 22.2955C52.9481 22.5142 52.8652 22.7015 52.6995 22.8572C52.5371 23.013 52.3415 23.0909 52.1128 23.0909ZM57.9209 35.0227C57.3541 35.0227 56.8669 34.9498 56.4593 34.804C56.0516 34.6615 55.7119 34.4725 55.4401 34.2372C55.1716 34.0052 54.9578 33.7566 54.7987 33.4915L55.7334 32.8352C55.8395 32.9744 55.9737 33.1335 56.1361 33.3125C56.2985 33.4948 56.5206 33.6522 56.8023 33.7848C57.0873 33.9207 57.4602 33.9886 57.9209 33.9886C58.5374 33.9886 59.0461 33.8395 59.4472 33.5412C59.8482 33.2429 60.0487 32.7756 60.0487 32.1392V30.5881H59.9493C59.8631 30.7273 59.7405 30.8996 59.5814 31.1051C59.4256 31.3073 59.2003 31.4879 58.9053 31.647C58.6136 31.8028 58.2192 31.8807 57.722 31.8807C57.1056 31.8807 56.5521 31.7348 56.0615 31.4432C55.5743 31.1515 55.1882 30.7273 54.9031 30.1705C54.6214 29.6136 54.4806 28.9375 54.4806 28.142C54.4806 27.3598 54.6181 26.6787 54.8932 26.0987C55.1683 25.5154 55.5511 25.0646 56.0416 24.7464C56.5322 24.425 57.0989 24.2642 57.7419 24.2642C58.2391 24.2642 58.6335 24.3471 58.9252 24.5128C59.2201 24.6752 59.4455 24.8608 59.6013 25.0696C59.7604 25.2751 59.883 25.4441 59.9692 25.5767H60.0885V24.3636H61.222V32.2188C61.222 32.875 61.0729 33.4086 60.7746 33.8196C60.4796 34.2339 60.0819 34.5372 59.5814 34.7294C59.0843 34.925 58.5307 35.0227 57.9209 35.0227ZM57.8811 30.8267C58.3518 30.8267 58.7495 30.719 59.0743 30.5036C59.3991 30.2881 59.646 29.9782 59.8151 29.5739C59.9841 29.1695 60.0686 28.6856 60.0686 28.1222C60.0686 27.572 59.9858 27.0864 59.82 26.6655C59.6543 26.2446 59.4091 25.9148 59.0843 25.6761C58.7594 25.4375 58.3584 25.3182 57.8811 25.3182C57.384 25.3182 56.9697 25.4441 56.6382 25.696C56.3101 25.9479 56.0632 26.286 55.8975 26.7102C55.7351 27.1345 55.6539 27.6051 55.6539 28.1222C55.6539 28.6525 55.7367 29.1214 55.9024 29.5291C56.0715 29.9335 56.32 30.2517 56.6482 30.4837C56.9796 30.7124 57.3906 30.8267 57.8811 30.8267ZM64.5431 27.4062V32H63.3698V24.3636H64.5033V25.5568H64.6027C64.7817 25.169 65.0535 24.8575 65.4181 24.6222C65.7826 24.3835 66.2533 24.2642 66.83 24.2642C67.347 24.2642 67.7994 24.3703 68.1872 24.5824C68.575 24.7912 68.8766 25.1094 69.0921 25.5369C69.3075 25.9612 69.4152 26.4981 69.4152 27.1477V32H68.2419V27.2273C68.2419 26.6274 68.0861 26.16 67.7746 25.8253C67.463 25.4872 67.0355 25.3182 66.4919 25.3182C66.1174 25.3182 65.7826 25.3994 65.4877 25.5618C65.196 25.7242 64.9656 25.9612 64.7966 26.2727C64.6276 26.5843 64.5431 26.9621 64.5431 27.4062Z" fill="white"/>
<path d="M48.165 39.2727V48H47.1081V40.3807H47.057L44.9263 41.7955V40.7216L47.1081 39.2727H48.165ZM54.2033 48V39.2727H55.209V42.4943H55.2942C55.3681 42.3807 55.4703 42.2358 55.601 42.0597C55.7346 41.8807 55.9249 41.7216 56.1721 41.5824C56.4221 41.4403 56.7601 41.3693 57.1863 41.3693C57.7374 41.3693 58.2232 41.5071 58.6436 41.7827C59.0641 42.0582 59.3922 42.4489 59.628 42.9545C59.8638 43.4602 59.9817 44.0568 59.9817 44.7443C59.9817 45.4375 59.8638 46.0384 59.628 46.5469C59.3922 47.0526 59.0655 47.4446 58.6479 47.723C58.2303 47.9986 57.7488 48.1364 57.2033 48.1364C56.7828 48.1364 56.4462 48.0668 56.1934 47.9276C55.9405 47.7855 55.7459 47.625 55.6096 47.446C55.4732 47.2642 55.3681 47.1136 55.2942 46.9943H55.1749V48H54.2033ZM55.1919 44.7273C55.1919 45.2216 55.2644 45.6577 55.4093 46.0355C55.5542 46.4105 55.7658 46.7045 56.0442 46.9176C56.3226 47.1278 56.6635 47.233 57.0669 47.233C57.4874 47.233 57.8382 47.1222 58.1195 46.9006C58.4036 46.6761 58.6167 46.375 58.7587 45.9972C58.9036 45.6165 58.976 45.1932 58.976 44.7273C58.976 44.267 58.905 43.8523 58.763 43.483C58.6238 43.1108 58.4121 42.8168 58.128 42.6009C57.8468 42.3821 57.4931 42.2727 57.0669 42.2727C56.6578 42.2727 56.3141 42.3764 56.0357 42.5838C55.7573 42.7884 55.5471 43.0753 55.405 43.4446C55.263 43.8111 55.1919 44.2386 55.1919 44.7273ZM61.5201 48V41.4545H62.5257V48H61.5201ZM62.0314 40.3636C61.8354 40.3636 61.6664 40.2969 61.5243 40.1634C61.3851 40.0298 61.3155 39.8693 61.3155 39.6818C61.3155 39.4943 61.3851 39.3338 61.5243 39.2003C61.6664 39.0668 61.8354 39 62.0314 39C62.2275 39 62.3951 39.0668 62.5343 39.2003C62.6763 39.3338 62.7473 39.4943 62.7473 39.6818C62.7473 39.8693 62.6763 40.0298 62.5343 40.1634C62.3951 40.2969 62.2275 40.3636 62.0314 40.3636ZM67.2143 41.4545V42.3068H63.8223V41.4545H67.2143ZM64.8109 39.8864H65.8166V46.125C65.8166 46.4091 65.8578 46.6222 65.9402 46.7642C66.0254 46.9034 66.1333 46.9972 66.264 47.0455C66.3975 47.0909 66.5382 47.1136 66.6859 47.1136C66.7967 47.1136 66.8876 47.108 66.9586 47.0966C67.0297 47.0824 67.0865 47.071 67.1291 47.0625L67.3336 47.9659C67.2654 47.9915 67.1703 48.017 67.0481 48.0426C66.926 48.071 66.7711 48.0852 66.5836 48.0852C66.2995 48.0852 66.0211 48.0241 65.7484 47.902C65.4785 47.7798 65.2541 47.5938 65.0751 47.3438C64.899 47.0938 64.8109 46.7784 64.8109 46.3977V39.8864Z" fill="#9D9D99"/>
<path d="M110.02 32V21.8182H116.165V22.9119H111.253V26.3523H115.847V27.446H111.253V30.9062H116.244V32H110.02ZM119.103 24.3636L120.933 27.4858L122.762 24.3636H124.115L121.649 28.1818L124.115 32H122.762L120.933 29.0369L119.103 32H117.751L120.177 28.1818L117.751 24.3636H119.103ZM125.789 34.8636V24.3636H126.922V25.5767H127.061C127.148 25.4441 127.267 25.2751 127.419 25.0696C127.575 24.8608 127.797 24.6752 128.086 24.5128C128.377 24.3471 128.772 24.2642 129.269 24.2642C129.912 24.2642 130.479 24.425 130.969 24.7464C131.46 25.0679 131.842 25.5237 132.118 26.1136C132.393 26.7036 132.53 27.3996 132.53 28.2017C132.53 29.0104 132.393 29.7114 132.118 30.3047C131.842 30.8946 131.461 31.352 130.974 31.6768C130.487 31.9983 129.925 32.1591 129.289 32.1591C128.798 32.1591 128.405 32.0779 128.11 31.9155C127.815 31.7498 127.588 31.5625 127.429 31.3537C127.27 31.1416 127.148 30.9659 127.061 30.8267H126.962V34.8636H125.789ZM126.942 28.1818C126.942 28.7585 127.027 29.2673 127.196 29.7081C127.365 30.1456 127.612 30.4886 127.936 30.7372C128.261 30.9825 128.659 31.1051 129.13 31.1051C129.62 31.1051 130.029 30.9759 130.358 30.7173C130.689 30.4555 130.938 30.1042 131.103 29.6634C131.272 29.2192 131.357 28.7254 131.357 28.1818C131.357 27.6449 131.274 27.161 131.108 26.7301C130.946 26.2959 130.699 25.9529 130.368 25.701C130.039 25.4458 129.627 25.3182 129.13 25.3182C128.652 25.3182 128.251 25.4392 127.926 25.6811C127.602 25.9197 127.356 26.2545 127.191 26.6854C127.025 27.1129 126.942 27.6117 126.942 28.1818ZM137.422 32.1591C136.733 32.1591 136.128 31.995 135.608 31.6669C135.091 31.3388 134.686 30.8797 134.395 30.2898C134.106 29.6998 133.962 29.0104 133.962 28.2216C133.962 27.4261 134.106 26.7318 134.395 26.1385C134.686 25.5452 135.091 25.0845 135.608 24.7564C136.128 24.4283 136.733 24.2642 137.422 24.2642C138.112 24.2642 138.715 24.4283 139.232 24.7564C139.752 25.0845 140.157 25.5452 140.445 26.1385C140.737 26.7318 140.882 27.4261 140.882 28.2216C140.882 29.0104 140.737 29.6998 140.445 30.2898C140.157 30.8797 139.752 31.3388 139.232 31.6669C138.715 31.995 138.112 32.1591 137.422 32.1591ZM137.422 31.1051C137.946 31.1051 138.377 30.9709 138.715 30.7024C139.053 30.4339 139.303 30.081 139.466 29.6435C139.628 29.206 139.709 28.732 139.709 28.2216C139.709 27.7112 139.628 27.2356 139.466 26.7947C139.303 26.3539 139.053 25.9976 138.715 25.7259C138.377 25.4541 137.946 25.3182 137.422 25.3182C136.899 25.3182 136.468 25.4541 136.13 25.7259C135.792 25.9976 135.541 26.3539 135.379 26.7947C135.217 27.2356 135.135 27.7112 135.135 28.2216C135.135 28.732 135.217 29.206 135.379 29.6435C135.541 30.081 135.792 30.4339 136.13 30.7024C136.468 30.9709 136.899 31.1051 137.422 31.1051ZM143.847 27.4062V32H142.673V24.3636H143.807V25.5568H143.906C144.085 25.169 144.357 24.8575 144.722 24.6222C145.086 24.3835 145.557 24.2642 146.134 24.2642C146.651 24.2642 147.103 24.3703 147.491 24.5824C147.879 24.7912 148.18 25.1094 148.396 25.5369C148.611 25.9612 148.719 26.4981 148.719 27.1477V32H147.546V27.2273C147.546 26.6274 147.39 26.16 147.078 25.8253C146.767 25.4872 146.339 25.3182 145.796 25.3182C145.421 25.3182 145.086 25.3994 144.791 25.5618C144.5 25.7242 144.269 25.9612 144.1 26.2727C143.931 26.5843 143.847 26.9621 143.847 27.4062ZM154.065 32.1591C153.329 32.1591 152.694 31.9967 152.161 31.6719C151.63 31.3438 151.221 30.8864 150.933 30.2997C150.647 29.7098 150.505 29.0237 150.505 28.2415C150.505 27.4593 150.647 26.7699 150.933 26.1733C151.221 25.5734 151.622 25.1061 152.136 24.7713C152.653 24.4332 153.256 24.2642 153.945 24.2642C154.343 24.2642 154.736 24.3305 155.124 24.4631C155.511 24.5956 155.864 24.8111 156.183 25.1094C156.501 25.4044 156.754 25.7955 156.943 26.2827C157.132 26.7699 157.227 27.3698 157.227 28.0824V28.5795H151.34V27.5653H156.033C156.033 27.1345 155.947 26.75 155.775 26.4119C155.606 26.0739 155.364 25.8071 155.049 25.6115C154.737 25.416 154.37 25.3182 153.945 25.3182C153.478 25.3182 153.074 25.4342 152.732 25.6662C152.394 25.8949 152.134 26.1932 151.952 26.5611C151.769 26.929 151.678 27.3234 151.678 27.7443V28.4205C151.678 28.9972 151.778 29.486 151.977 29.8871C152.179 30.2848 152.459 30.5881 152.817 30.7969C153.175 31.0024 153.591 31.1051 154.065 31.1051C154.373 31.1051 154.651 31.062 154.9 30.9759C155.152 30.8864 155.369 30.7538 155.551 30.5781C155.733 30.3991 155.874 30.1771 155.974 29.9119L157.107 30.2301C156.988 30.6146 156.787 30.9527 156.506 31.2443C156.224 31.5327 155.876 31.758 155.462 31.9205C155.047 32.0795 154.582 32.1591 154.065 32.1591ZM160.185 27.4062V32H159.011V24.3636H160.145V25.5568H160.244C160.423 25.169 160.695 24.8575 161.06 24.6222C161.424 24.3835 161.895 24.2642 162.472 24.2642C162.989 24.2642 163.441 24.3703 163.829 24.5824C164.217 24.7912 164.518 25.1094 164.734 25.5369C164.949 25.9612 165.057 26.4981 165.057 27.1477V32H163.884V27.2273C163.884 26.6274 163.728 26.16 163.416 25.8253C163.105 25.4872 162.677 25.3182 162.134 25.3182C161.759 25.3182 161.424 25.3994 161.129 25.5618C160.838 25.7242 160.607 25.9612 160.438 26.2727C160.269 26.5843 160.185 26.9621 160.185 27.4062ZM170.522 24.3636V25.358H166.564V24.3636H170.522ZM167.718 22.5341H168.891V29.8125C168.891 30.1439 168.939 30.3925 169.035 30.5582C169.135 30.7206 169.261 30.83 169.413 30.8864C169.569 30.9394 169.733 30.9659 169.905 30.9659C170.035 30.9659 170.141 30.9593 170.224 30.946C170.306 30.9295 170.373 30.9162 170.422 30.9062L170.661 31.9602C170.581 31.9901 170.47 32.0199 170.328 32.0497C170.185 32.0829 170.005 32.0994 169.786 32.0994C169.455 32.0994 169.13 32.0282 168.812 31.8857C168.497 31.7431 168.235 31.526 168.026 31.2344C167.821 30.9427 167.718 30.5748 167.718 30.1307V22.5341Z" fill="white"/>
<path d="M127.908 48.1193C127.323 48.1193 126.806 48.0156 126.357 47.8082C125.911 47.598 125.563 47.3097 125.313 46.9432C125.063 46.5739 124.939 46.1534 124.942 45.6818C124.939 45.3125 125.012 44.9716 125.159 44.6591C125.307 44.3437 125.509 44.081 125.764 43.8707C126.023 43.6577 126.311 43.5227 126.629 43.4659V43.4148C126.212 43.3068 125.879 43.0724 125.632 42.7116C125.385 42.348 125.263 41.9347 125.266 41.4716C125.263 41.0284 125.375 40.6321 125.602 40.2827C125.83 39.9332 126.142 39.6577 126.54 39.456C126.941 39.2543 127.396 39.1534 127.908 39.1534C128.414 39.1534 128.865 39.2543 129.263 39.456C129.661 39.6577 129.973 39.9332 130.2 40.2827C130.431 40.6321 130.547 41.0284 130.55 41.4716C130.547 41.9347 130.421 42.348 130.171 42.7116C129.923 43.0724 129.595 43.3068 129.186 43.4148V43.4659C129.502 43.5227 129.786 43.6577 130.039 43.8707C130.291 44.081 130.493 44.3437 130.644 44.6591C130.794 44.9716 130.871 45.3125 130.874 45.6818C130.871 46.1534 130.743 46.5739 130.49 46.9432C130.24 47.3097 129.892 47.598 129.446 47.8082C129.003 48.0156 128.49 48.1193 127.908 48.1193ZM127.908 47.1818C128.303 47.1818 128.644 47.1179 128.931 46.9901C129.218 46.8622 129.439 46.6818 129.595 46.4489C129.752 46.2159 129.831 45.9432 129.834 45.6307C129.831 45.3011 129.746 45.0099 129.578 44.7571C129.411 44.5043 129.182 44.3054 128.892 44.1605C128.605 44.0156 128.277 43.9432 127.908 43.9432C127.536 43.9432 127.203 44.0156 126.911 44.1605C126.621 44.3054 126.392 44.5043 126.225 44.7571C126.06 45.0099 125.979 45.3011 125.982 45.6307C125.979 45.9432 126.054 46.2159 126.208 46.4489C126.364 46.6818 126.587 46.8622 126.877 46.9901C127.166 47.1179 127.51 47.1818 127.908 47.1818ZM127.908 43.0398C128.22 43.0398 128.497 42.9773 128.739 42.8523C128.983 42.7273 129.175 42.5526 129.314 42.3281C129.453 42.1037 129.524 41.8409 129.527 41.5398C129.524 41.2443 129.455 40.9872 129.318 40.7685C129.182 40.5469 128.993 40.3764 128.752 40.2571C128.51 40.1349 128.229 40.0739 127.908 40.0739C127.581 40.0739 127.296 40.1349 127.051 40.2571C126.807 40.3764 126.618 40.5469 126.485 40.7685C126.351 40.9872 126.286 41.2443 126.289 41.5398C126.286 41.8409 126.352 42.1037 126.489 42.3281C126.628 42.5526 126.82 42.7273 127.064 42.8523C127.308 42.9773 127.59 43.0398 127.908 43.0398ZM136.035 48V39.2727H137.041V42.4943H137.126C137.2 42.3807 137.302 42.2358 137.433 42.0597C137.567 41.8807 137.757 41.7216 138.004 41.5824C138.254 41.4403 138.592 41.3693 139.018 41.3693C139.569 41.3693 140.055 41.5071 140.476 41.7827C140.896 42.0582 141.224 42.4489 141.46 42.9545C141.696 43.4602 141.814 44.0568 141.814 44.7443C141.814 45.4375 141.696 46.0384 141.46 46.5469C141.224 47.0526 140.898 47.4446 140.48 47.723C140.062 47.9986 139.581 48.1364 139.035 48.1364C138.615 48.1364 138.278 48.0668 138.025 47.9276C137.773 47.7855 137.578 47.625 137.442 47.446C137.305 47.2642 137.2 47.1136 137.126 46.9943H137.007V48H136.035ZM137.024 44.7273C137.024 45.2216 137.096 45.6577 137.241 46.0355C137.386 46.4105 137.598 46.7045 137.876 46.9176C138.155 47.1278 138.496 47.233 138.899 47.233C139.319 47.233 139.67 47.1222 139.952 46.9006C140.236 46.6761 140.449 46.375 140.591 45.9972C140.736 45.6165 140.808 45.1932 140.808 44.7273C140.808 44.267 140.737 43.8523 140.595 43.483C140.456 43.1108 140.244 42.8168 139.96 42.6009C139.679 42.3821 139.325 42.2727 138.899 42.2727C138.49 42.2727 138.146 42.3764 137.868 42.5838C137.589 42.7884 137.379 43.0753 137.237 43.4446C137.095 43.8111 137.024 44.2386 137.024 44.7273ZM143.352 48V41.4545H144.358V48H143.352ZM143.863 40.3636C143.667 40.3636 143.498 40.2969 143.356 40.1634C143.217 40.0298 143.148 39.8693 143.148 39.6818C143.148 39.4943 143.217 39.3338 143.356 39.2003C143.498 39.0668 143.667 39 143.863 39C144.059 39 144.227 39.0668 144.366 39.2003C144.508 39.3338 144.579 39.4943 144.579 39.6818C144.579 39.8693 144.508 40.0298 144.366 40.1634C144.227 40.2969 144.059 40.3636 143.863 40.3636ZM149.046 41.4545V42.3068H145.654V41.4545H149.046ZM146.643 39.8864H147.649V46.125C147.649 46.4091 147.69 46.6222 147.772 46.7642C147.857 46.9034 147.965 46.9972 148.096 47.0455C148.23 47.0909 148.37 47.1136 148.518 47.1136C148.629 47.1136 148.72 47.108 148.791 47.0966C148.862 47.0824 148.919 47.071 148.961 47.0625L149.166 47.9659C149.097 47.9915 149.002 48.017 148.88 48.0426C148.758 48.071 148.603 48.0852 148.416 48.0852C148.132 48.0852 147.853 48.0241 147.58 47.902C147.311 47.7798 147.086 47.5938 146.907 47.3438C146.731 47.0938 146.643 46.7784 146.643 46.3977V39.8864ZM155.078 42.9205L154.175 43.1761C154.118 43.0256 154.034 42.8793 153.923 42.7372C153.816 42.5923 153.668 42.473 153.48 42.3793C153.293 42.2855 153.053 42.2386 152.76 42.2386C152.36 42.2386 152.026 42.331 151.759 42.5156C151.494 42.6974 151.362 42.929 151.362 43.2102C151.362 43.4602 151.453 43.6577 151.635 43.8026C151.817 43.9474 152.101 44.0682 152.487 44.1648L153.459 44.4034C154.044 44.5455 154.48 44.7628 154.767 45.0554C155.054 45.3452 155.198 45.7187 155.198 46.1761C155.198 46.5511 155.09 46.8864 154.874 47.1818C154.661 47.4773 154.362 47.7102 153.979 47.8807C153.595 48.0511 153.149 48.1364 152.641 48.1364C151.973 48.1364 151.421 47.9915 150.983 47.7017C150.546 47.4119 150.269 46.9886 150.152 46.4318L151.107 46.1932C151.198 46.5455 151.369 46.8097 151.622 46.9858C151.878 47.1619 152.212 47.25 152.624 47.25C153.093 47.25 153.465 47.1506 153.74 46.9517C154.019 46.75 154.158 46.5085 154.158 46.2273C154.158 46 154.078 45.8097 153.919 45.6562C153.76 45.5 153.516 45.3835 153.186 45.3068L152.095 45.0511C151.496 44.9091 151.056 44.6889 150.774 44.3906C150.496 44.0895 150.357 43.7131 150.357 43.2614C150.357 42.892 150.46 42.5653 150.668 42.2812C150.878 41.9972 151.164 41.7741 151.524 41.6122C151.888 41.4503 152.3 41.3693 152.76 41.3693C153.408 41.3693 153.916 41.5114 154.286 41.7955C154.658 42.0795 154.922 42.4545 155.078 42.9205Z" fill="#9D9D99"/>
<path d="M371.503 21.8182H372.975L376.435 30.2699H376.555L380.015 21.8182H381.486V32H380.333V24.2642H380.234L377.052 32H375.938L372.756 24.2642H372.657V32H371.503V21.8182ZM386.047 32.179C385.563 32.179 385.124 32.0878 384.729 31.9055C384.335 31.7199 384.022 31.4531 383.79 31.1051C383.557 30.7538 383.441 30.3295 383.441 29.8324C383.441 29.3949 383.528 29.0402 383.7 28.7685C383.872 28.4934 384.103 28.2779 384.391 28.1222C384.679 27.9664 384.998 27.8504 385.346 27.7741C385.697 27.6946 386.05 27.6316 386.405 27.5852C386.869 27.5256 387.245 27.4808 387.533 27.451C387.825 27.4179 388.037 27.3632 388.169 27.2869C388.305 27.2107 388.373 27.0781 388.373 26.8892V26.8494C388.373 26.3589 388.239 25.9777 387.971 25.706C387.705 25.4342 387.303 25.2983 386.763 25.2983C386.202 25.2983 385.763 25.4209 385.445 25.6662C385.127 25.9115 384.903 26.1733 384.774 26.4517L383.66 26.054C383.859 25.59 384.124 25.2287 384.456 24.9702C384.79 24.7083 385.155 24.526 385.549 24.4233C385.947 24.3172 386.338 24.2642 386.723 24.2642C386.968 24.2642 387.25 24.294 387.568 24.3537C387.889 24.41 388.199 24.5277 388.498 24.7067C388.799 24.8857 389.049 25.1558 389.248 25.517C389.447 25.8783 389.547 26.3622 389.547 26.9688V32H388.373V30.9659H388.314C388.234 31.1316 388.102 31.3089 387.916 31.4979C387.73 31.6868 387.483 31.8475 387.175 31.9801C386.867 32.1127 386.491 32.179 386.047 32.179ZM386.226 31.125C386.69 31.125 387.081 31.0339 387.399 30.8516C387.72 30.6693 387.962 30.4339 388.125 30.1456C388.29 29.8572 388.373 29.554 388.373 29.2358V28.1619C388.324 28.2216 388.214 28.2763 388.045 28.326C387.879 28.3724 387.687 28.4138 387.468 28.4503C387.253 28.4834 387.043 28.5133 386.837 28.5398C386.635 28.563 386.471 28.5829 386.345 28.5994C386.04 28.6392 385.755 28.7038 385.49 28.7933C385.228 28.8795 385.016 29.0104 384.853 29.1861C384.694 29.3584 384.615 29.5937 384.615 29.892C384.615 30.2997 384.766 30.608 385.067 30.8168C385.372 31.0223 385.758 31.125 386.226 31.125ZM392.861 27.4062V32H391.688V24.3636H392.822V25.5568H392.921C393.1 25.169 393.372 24.8575 393.736 24.6222C394.101 24.3835 394.572 24.2642 395.148 24.2642C395.665 24.2642 396.118 24.3703 396.506 24.5824C396.893 24.7912 397.195 25.1094 397.41 25.5369C397.626 25.9612 397.734 26.4981 397.734 27.1477V32H396.56V27.2273C396.56 26.6274 396.405 26.16 396.093 25.8253C395.781 25.4872 395.354 25.3182 394.81 25.3182C394.436 25.3182 394.101 25.3994 393.806 25.5618C393.514 25.7242 393.284 25.9612 393.115 26.2727C392.946 26.5843 392.861 26.9621 392.861 27.4062ZM403.199 24.3636V25.358H399.241V24.3636H403.199ZM400.395 22.5341H401.568V29.8125C401.568 30.1439 401.616 30.3925 401.712 30.5582C401.812 30.7206 401.937 30.83 402.09 30.8864C402.246 30.9394 402.41 30.9659 402.582 30.9659C402.711 30.9659 402.817 30.9593 402.9 30.946C402.983 30.9295 403.049 30.9162 403.099 30.9062L403.338 31.9602C403.258 31.9901 403.147 32.0199 403.005 32.0497C402.862 32.0829 402.682 32.0994 402.463 32.0994C402.131 32.0994 401.807 32.0282 401.488 31.8857C401.174 31.7431 400.912 31.526 400.703 31.2344C400.497 30.9427 400.395 30.5748 400.395 30.1307V22.5341ZM404.964 32V24.3636H406.137V32H404.964ZM405.56 23.0909C405.331 23.0909 405.134 23.013 404.968 22.8572C404.806 22.7015 404.725 22.5142 404.725 22.2955C404.725 22.0767 404.806 21.8894 404.968 21.7337C405.134 21.5779 405.331 21.5 405.56 21.5C405.789 21.5 405.984 21.5779 406.147 21.7337C406.312 21.8894 406.395 22.0767 406.395 22.2955C406.395 22.5142 406.312 22.7015 406.147 22.8572C405.984 23.013 405.789 23.0909 405.56 23.0909ZM413.695 26.0739L412.641 26.3722C412.575 26.1965 412.477 26.0258 412.348 25.8601C412.222 25.6911 412.049 25.5518 411.831 25.4425C411.612 25.3331 411.332 25.2784 410.99 25.2784C410.523 25.2784 410.134 25.3861 409.822 25.6016C409.514 25.8137 409.36 26.0838 409.36 26.4119C409.36 26.7036 409.466 26.9339 409.678 27.103C409.89 27.272 410.221 27.4129 410.672 27.5256L411.806 27.804C412.488 27.9697 412.997 28.2232 413.332 28.5646C413.667 28.9027 413.834 29.3385 413.834 29.8722C413.834 30.3097 413.708 30.7008 413.456 31.0455C413.208 31.3902 412.86 31.6619 412.412 31.8608C411.965 32.0597 411.444 32.1591 410.851 32.1591C410.072 32.1591 409.428 31.9901 408.917 31.652C408.407 31.3139 408.084 30.8201 407.948 30.1705L409.061 29.892C409.167 30.303 409.368 30.6113 409.663 30.8168C409.961 31.0223 410.351 31.125 410.831 31.125C411.378 31.125 411.812 31.009 412.134 30.777C412.459 30.5417 412.621 30.2599 412.621 29.9318C412.621 29.6667 412.528 29.4446 412.343 29.2656C412.157 29.0833 411.872 28.9474 411.487 28.858L410.215 28.5597C409.515 28.3939 409.002 28.1371 408.674 27.7891C408.349 27.4377 408.186 26.9986 408.186 26.4716C408.186 26.0407 408.307 25.6596 408.549 25.3281C408.795 24.9967 409.128 24.7365 409.549 24.5476C409.973 24.3587 410.453 24.2642 410.99 24.2642C411.746 24.2642 412.339 24.4299 412.77 24.7614C413.204 25.0928 413.513 25.5303 413.695 26.0739ZM421.009 26.0739L419.955 26.3722C419.889 26.1965 419.791 26.0258 419.662 25.8601C419.536 25.6911 419.364 25.5518 419.145 25.4425C418.926 25.3331 418.646 25.2784 418.305 25.2784C417.837 25.2784 417.448 25.3861 417.136 25.6016C416.828 25.8137 416.674 26.0838 416.674 26.4119C416.674 26.7036 416.78 26.9339 416.992 27.103C417.204 27.272 417.536 27.4129 417.987 27.5256L419.12 27.804C419.803 27.9697 420.312 28.2232 420.646 28.5646C420.981 28.9027 421.149 29.3385 421.149 29.8722C421.149 30.3097 421.023 30.7008 420.771 31.0455C420.522 31.3902 420.174 31.6619 419.727 31.8608C419.279 32.0597 418.759 32.1591 418.166 32.1591C417.387 32.1591 416.742 31.9901 416.232 31.652C415.721 31.3139 415.398 30.8201 415.262 30.1705L416.376 29.892C416.482 30.303 416.682 30.6113 416.977 30.8168C417.276 31.0223 417.665 31.125 418.146 31.125C418.693 31.125 419.127 31.009 419.448 30.777C419.773 30.5417 419.935 30.2599 419.935 29.9318C419.935 29.6667 419.843 29.4446 419.657 29.2656C419.471 29.0833 419.186 28.9474 418.802 28.858L417.529 28.5597C416.83 28.3939 416.316 28.1371 415.988 27.7891C415.663 27.4377 415.501 26.9986 415.501 26.4716C415.501 26.0407 415.622 25.6596 415.864 25.3281C416.109 24.9967 416.442 24.7365 416.863 24.5476C417.287 24.3587 417.768 24.2642 418.305 24.2642C419.06 24.2642 419.654 24.4299 420.085 24.7614C420.519 25.0928 420.827 25.5303 421.009 26.0739ZM425.162 32.179C424.678 32.179 424.239 32.0878 423.844 31.9055C423.45 31.7199 423.137 31.4531 422.905 31.1051C422.673 30.7538 422.557 30.3295 422.557 29.8324C422.557 29.3949 422.643 29.0402 422.815 28.7685C422.988 28.4934 423.218 28.2779 423.506 28.1222C423.795 27.9664 424.113 27.8504 424.461 27.7741C424.812 27.6946 425.165 27.6316 425.52 27.5852C425.984 27.5256 426.36 27.4808 426.648 27.451C426.94 27.4179 427.152 27.3632 427.285 27.2869C427.421 27.2107 427.489 27.0781 427.489 26.8892V26.8494C427.489 26.3589 427.354 25.9777 427.086 25.706C426.821 25.4342 426.418 25.2983 425.878 25.2983C425.318 25.2983 424.878 25.4209 424.56 25.6662C424.242 25.9115 424.018 26.1733 423.889 26.4517L422.775 26.054C422.974 25.59 423.239 25.2287 423.571 24.9702C423.906 24.7083 424.27 24.526 424.665 24.4233C425.062 24.3172 425.454 24.2642 425.838 24.2642C426.083 24.2642 426.365 24.294 426.683 24.3537C427.005 24.41 427.315 24.5277 427.613 24.7067C427.914 24.8857 428.165 25.1558 428.364 25.517C428.562 25.8783 428.662 26.3622 428.662 26.9688V32H427.489V30.9659H427.429C427.349 31.1316 427.217 31.3089 427.031 31.4979C426.846 31.6868 426.599 31.8475 426.29 31.9801C425.982 32.1127 425.606 32.179 425.162 32.179ZM425.341 31.125C425.805 31.125 426.196 31.0339 426.514 30.8516C426.836 30.6693 427.078 30.4339 427.24 30.1456C427.406 29.8572 427.489 29.554 427.489 29.2358V28.1619C427.439 28.2216 427.329 28.2763 427.16 28.326C426.995 28.3724 426.802 28.4138 426.584 28.4503C426.368 28.4834 426.158 28.5133 425.952 28.5398C425.75 28.563 425.586 28.5829 425.46 28.5994C425.155 28.6392 424.87 28.7038 424.605 28.7933C424.343 28.8795 424.131 29.0104 423.969 29.1861C423.81 29.3584 423.73 29.5937 423.73 29.892C423.73 30.2997 423.881 30.608 424.182 30.8168C424.487 31.0223 424.873 31.125 425.341 31.125Z" fill="white"/>
<path d="M381.357 48V47.233L384.237 44.0795C384.575 43.7102 384.854 43.3892 385.072 43.1165C385.291 42.8409 385.453 42.5824 385.558 42.3409C385.666 42.0966 385.72 41.8409 385.72 41.5739C385.72 41.267 385.646 41.0014 385.499 40.777C385.354 40.5526 385.155 40.3793 384.902 40.2571C384.649 40.1349 384.365 40.0739 384.05 40.0739C383.714 40.0739 383.422 40.1435 383.172 40.2827C382.925 40.419 382.733 40.6108 382.597 40.858C382.463 41.1051 382.396 41.3949 382.396 41.7273H381.391C381.391 41.2159 381.509 40.767 381.744 40.3807C381.98 39.9943 382.301 39.6932 382.707 39.4773C383.116 39.2614 383.575 39.1534 384.084 39.1534C384.595 39.1534 385.048 39.2614 385.443 39.4773C385.838 39.6932 386.148 39.9844 386.372 40.3509C386.597 40.7173 386.709 41.125 386.709 41.5739C386.709 41.8949 386.651 42.2088 386.534 42.5156C386.42 42.8196 386.222 43.1591 385.938 43.5341C385.656 43.9062 385.266 44.3608 384.766 44.8977L382.805 46.9943V47.0625H386.862V48H381.357ZM391.571 48.1193C391.009 48.1193 390.507 48.0227 390.067 47.8295C389.629 47.6364 389.281 47.3679 389.023 47.0241C388.767 46.6776 388.628 46.2756 388.605 45.8182H389.679C389.702 46.0994 389.798 46.3423 389.969 46.5469C390.139 46.7486 390.362 46.9048 390.638 47.0156C390.913 47.1264 391.219 47.1818 391.554 47.1818C391.929 47.1818 392.261 47.1165 392.551 46.9858C392.841 46.8551 393.068 46.6733 393.233 46.4403C393.398 46.2074 393.48 45.9375 393.48 45.6307C393.48 45.3097 393.401 45.027 393.241 44.7827C393.082 44.5355 392.849 44.3423 392.543 44.2031C392.236 44.0639 391.861 43.9943 391.418 43.9943H390.719V43.0568H391.418C391.764 43.0568 392.068 42.9943 392.33 42.8693C392.594 42.7443 392.8 42.5682 392.947 42.3409C393.098 42.1136 393.173 41.8466 393.173 41.5398C393.173 41.2443 393.108 40.9872 392.977 40.7685C392.847 40.5497 392.662 40.3793 392.423 40.2571C392.188 40.1349 391.909 40.0739 391.588 40.0739C391.287 40.0739 391.003 40.1293 390.736 40.2401C390.472 40.348 390.256 40.5057 390.088 40.7131C389.92 40.9176 389.83 41.1648 389.815 41.4545H388.793C388.81 40.9972 388.947 40.5966 389.206 40.2528C389.464 39.9062 389.803 39.6364 390.22 39.4432C390.641 39.25 391.102 39.1534 391.605 39.1534C392.145 39.1534 392.608 39.2628 392.994 39.4815C393.381 39.6974 393.678 39.983 393.885 40.3381C394.092 40.6932 394.196 41.0767 394.196 41.4886C394.196 41.9801 394.067 42.3991 393.808 42.7457C393.553 43.0923 393.205 43.3324 392.764 43.4659V43.5341C393.315 43.625 393.746 43.8594 394.055 44.2372C394.365 44.6122 394.52 45.0767 394.52 45.6307C394.52 46.1051 394.391 46.5312 394.132 46.9091C393.876 47.2841 393.527 47.5795 393.084 47.7955C392.641 48.0114 392.136 48.1193 391.571 48.1193ZM399.791 48V39.2727H400.797V42.4943H400.882C400.956 42.3807 401.058 42.2358 401.189 42.0597C401.322 41.8807 401.513 41.7216 401.76 41.5824C402.01 41.4403 402.348 41.3693 402.774 41.3693C403.325 41.3693 403.811 41.5071 404.232 41.7827C404.652 42.0582 404.98 42.4489 405.216 42.9545C405.452 43.4602 405.57 44.0568 405.57 44.7443C405.57 45.4375 405.452 46.0384 405.216 46.5469C404.98 47.0526 404.653 47.4446 404.236 47.723C403.818 47.9986 403.337 48.1364 402.791 48.1364C402.371 48.1364 402.034 48.0668 401.781 47.9276C401.528 47.7855 401.334 47.625 401.197 47.446C401.061 47.2642 400.956 47.1136 400.882 46.9943H400.763V48H399.791ZM400.78 44.7273C400.78 45.2216 400.852 45.6577 400.997 46.0355C401.142 46.4105 401.354 46.7045 401.632 46.9176C401.911 47.1278 402.251 47.233 402.655 47.233C403.075 47.233 403.426 47.1222 403.707 46.9006C403.991 46.6761 404.205 46.375 404.347 45.9972C404.491 45.6165 404.564 45.1932 404.564 44.7273C404.564 44.267 404.493 43.8523 404.351 43.483C404.212 43.1108 404 42.8168 403.716 42.6009C403.435 42.3821 403.081 42.2727 402.655 42.2727C402.246 42.2727 401.902 42.3764 401.624 42.5838C401.345 42.7884 401.135 43.0753 400.993 43.4446C400.851 43.8111 400.78 44.2386 400.78 44.7273ZM407.108 48V41.4545H408.114V48H407.108ZM407.619 40.3636C407.423 40.3636 407.254 40.2969 407.112 40.1634C406.973 40.0298 406.903 39.8693 406.903 39.6818C406.903 39.4943 406.973 39.3338 407.112 39.2003C407.254 39.0668 407.423 39 407.619 39C407.815 39 407.983 39.0668 408.122 39.2003C408.264 39.3338 408.335 39.4943 408.335 39.6818C408.335 39.8693 408.264 40.0298 408.122 40.1634C407.983 40.2969 407.815 40.3636 407.619 40.3636ZM412.802 41.4545V42.3068H409.41V41.4545H412.802ZM410.399 39.8864H411.404V46.125C411.404 46.4091 411.446 46.6222 411.528 46.7642C411.613 46.9034 411.721 46.9972 411.852 47.0455C411.985 47.0909 412.126 47.1136 412.274 47.1136C412.385 47.1136 412.475 47.108 412.547 47.0966C412.618 47.0824 412.674 47.071 412.717 47.0625L412.922 47.9659C412.853 47.9915 412.758 48.017 412.636 48.0426C412.514 48.071 412.359 48.0852 412.172 48.0852C411.887 48.0852 411.609 48.0241 411.336 47.902C411.066 47.7798 410.842 47.5938 410.663 47.3438C410.487 47.0938 410.399 46.7784 410.399 46.3977V39.8864ZM418.834 42.9205L417.931 43.1761C417.874 43.0256 417.79 42.8793 417.679 42.7372C417.571 42.5923 417.424 42.473 417.236 42.3793C417.049 42.2855 416.809 42.2386 416.516 42.2386C416.115 42.2386 415.782 42.331 415.515 42.5156C415.25 42.6974 415.118 42.929 415.118 43.2102C415.118 43.4602 415.209 43.6577 415.391 43.8026C415.573 43.9474 415.857 44.0682 416.243 44.1648L417.215 44.4034C417.8 44.5455 418.236 44.7628 418.523 45.0554C418.81 45.3452 418.953 45.7187 418.953 46.1761C418.953 46.5511 418.846 46.8864 418.63 47.1818C418.417 47.4773 418.118 47.7102 417.735 47.8807C417.351 48.0511 416.905 48.1364 416.397 48.1364C415.729 48.1364 415.176 47.9915 414.739 47.7017C414.301 47.4119 414.025 46.9886 413.908 46.4318L414.863 46.1932C414.953 46.5455 415.125 46.8097 415.378 46.9858C415.634 47.1619 415.968 47.25 416.38 47.25C416.848 47.25 417.221 47.1506 417.496 46.9517C417.775 46.75 417.914 46.5085 417.914 46.2273C417.914 46 417.834 45.8097 417.675 45.6562C417.516 45.5 417.272 45.3835 416.942 45.3068L415.851 45.0511C415.252 44.9091 414.811 44.6889 414.53 44.3906C414.252 44.0895 414.113 43.7131 414.113 43.2614C414.113 42.892 414.216 42.5653 414.424 42.2812C414.634 41.9972 414.919 41.7741 415.28 41.6122C415.644 41.4503 416.056 41.3693 416.516 41.3693C417.164 41.3693 417.672 41.5114 418.042 41.7955C418.414 42.0795 418.678 42.4545 418.834 42.9205Z" fill="#9D9D99"/>
<path d="M62 64H50C48.8954 64 48 64.8954 48 66V100C48 101.105 48.8954 102 50 102H62C63.1046 102 64 101.105 64 100V66C64 64.8954 63.1046 64 62 64Z" fill="#F0997B" stroke="#854F0B" stroke-width="0.75"/>
<path d="M55.5 89.1392C54.7509 89.1392 54.1129 88.9354 53.5859 88.5277C53.0589 88.1167 52.6563 87.5218 52.3778 86.7429C52.0994 85.9607 51.9602 85.0161 51.9602 83.9091C51.9602 82.8087 52.0994 81.8691 52.3778 81.0902C52.6596 80.308 53.0639 79.7114 53.5909 79.3004C54.1212 78.8861 54.7576 78.679 55.5 78.679C56.2424 78.679 56.8771 78.8861 57.4041 79.3004C57.9344 79.7114 58.3388 80.308 58.6172 81.0902C58.8989 81.8691 59.0398 82.8087 59.0398 83.9091C59.0398 85.0161 58.9006 85.9607 58.6222 86.7429C58.3438 87.5218 57.9411 88.1167 57.4141 88.5277C56.8871 88.9354 56.2491 89.1392 55.5 89.1392ZM55.5 88.0455C56.2424 88.0455 56.8191 87.6875 57.2301 86.9716C57.6411 86.2557 57.8466 85.2348 57.8466 83.9091C57.8466 83.0275 57.7521 82.2768 57.5632 81.657C57.3776 81.0372 57.1091 80.5649 56.7578 80.2401C56.4098 79.9152 55.9905 79.7528 55.5 79.7528C54.7642 79.7528 54.1892 80.1158 53.7749 80.8416C53.3606 81.5642 53.1534 82.5866 53.1534 83.9091C53.1534 84.7907 53.2462 85.5398 53.4318 86.1562C53.6174 86.7727 53.8842 87.2417 54.2322 87.5632C54.5836 87.8847 55.0062 88.0455 55.5 88.0455Z" fill="#151515"/>
<path d="M90 64H78C76.8954 64 76 64.8954 76 66V100C76 101.105 76.8954 102 78 102H90C91.1046 102 92 101.105 92 100V66C92 64.8954 91.1046 64 90 64Z" fill="#85B7EB" stroke="#534AB7" stroke-width="0.75"/>
<path d="M106 64H94C92.8954 64 92 64.8954 92 66V100C92 101.105 92.8954 102 94 102H106C107.105 102 108 101.105 108 100V66C108 64.8954 107.105 64 106 64Z" fill="#85B7EB" stroke="#534AB7" stroke-width="0.75"/>
<path d="M122 64H110C108.895 64 108 64.8954 108 66V100C108 101.105 108.895 102 110 102H122C123.105 102 124 101.105 124 100V66C124 64.8954 123.105 64 122 64Z" fill="#85B7EB" stroke="#534AB7" stroke-width="0.75"/>
<path d="M138 64H126C124.895 64 124 64.8954 124 66V100C124 101.105 124.895 102 126 102H138C139.105 102 140 101.105 140 100V66C140 64.8954 139.105 64 138 64Z" fill="#85B7EB" stroke="#534AB7" stroke-width="0.75"/>
<path d="M154 64H142C140.895 64 140 64.8954 140 66V100C140 101.105 140.895 102 142 102H154C155.105 102 156 101.105 156 100V66C156 64.8954 155.105 64 154 64Z" fill="#85B7EB" stroke="#534AB7" stroke-width="0.75"/>
<path d="M170 64H158C156.895 64 156 64.8954 156 66V100C156 101.105 156.895 102 158 102H170C171.105 102 172 101.105 172 100V66C172 64.8954 171.105 64 170 64Z" fill="#85B7EB" stroke="#534AB7" stroke-width="0.75"/>
<path d="M186 64H174C172.895 64 172 64.8954 172 66V100C172 101.105 172.895 102 174 102H186C187.105 102 188 101.105 188 100V66C188 64.8954 187.105 64 186 64Z" fill="#85B7EB" stroke="#534AB7" stroke-width="0.75"/>
<path d="M202 64H190C188.895 64 188 64.8954 188 66V100C188 101.105 188.895 102 190 102H202C203.105 102 204 101.105 204 100V66C204 64.8954 203.105 64 202 64Z" fill="#85B7EB" stroke="#534AB7" stroke-width="0.75"/>
<path d="M230 64H218C216.895 64 216 64.8954 216 66V100C216 101.105 216.895 102 218 102H230C231.105 102 232 101.105 232 100V66C232 64.8954 231.105 64 230 64Z" fill="#97C459" stroke="#3B6D11" stroke-width="0.75"/>
<path d="M246 64H234C232.895 64 232 64.8954 232 66V100C232 101.105 232.895 102 234 102H246C247.105 102 248 101.105 248 100V66C248 64.8954 247.105 64 246 64Z" fill="#97C459" stroke="#3B6D11" stroke-width="0.75"/>
<path d="M262 64H250C248.895 64 248 64.8954 248 66V100C248 101.105 248.895 102 250 102H262C263.105 102 264 101.105 264 100V66C264 64.8954 263.105 64 262 64Z" fill="#97C459" stroke="#3B6D11" stroke-width="0.75"/>
<path d="M278 64H266C264.895 64 264 64.8954 264 66V100C264 101.105 264.895 102 266 102H278C279.105 102 280 101.105 280 100V66C280 64.8954 279.105 64 278 64Z" fill="#97C459" stroke="#3B6D11" stroke-width="0.75"/>
<path d="M294 64H282C280.895 64 280 64.8954 280 66V100C280 101.105 280.895 102 282 102H294C295.105 102 296 101.105 296 100V66C296 64.8954 295.105 64 294 64Z" fill="#97C459" stroke="#3B6D11" stroke-width="0.75"/>
<path d="M310 64H298C296.895 64 296 64.8954 296 66V100C296 101.105 296.895 102 298 102H310C311.105 102 312 101.105 312 100V66C312 64.8954 311.105 64 310 64Z" fill="#97C459" stroke="#3B6D11" stroke-width="0.75"/>
<path d="M326 64H314C312.895 64 312 64.8954 312 66V100C312 101.105 312.895 102 314 102H326C327.105 102 328 101.105 328 100V66C328 64.8954 327.105 64 326 64Z" fill="#97C459" stroke="#3B6D11" stroke-width="0.75"/>
<path d="M342 64H330C328.895 64 328 64.8954 328 66V100C328 101.105 328.895 102 330 102H342C343.105 102 344 101.105 344 100V66C344 64.8954 343.105 64 342 64Z" fill="#97C459" stroke="#3B6D11" stroke-width="0.75"/>
<path d="M358 64H346C344.895 64 344 64.8954 344 66V100C344 101.105 344.895 102 346 102H358C359.105 102 360 101.105 360 100V66C360 64.8954 359.105 64 358 64Z" fill="#97C459" stroke="#3B6D11" stroke-width="0.75"/>
<path d="M374 64H362C360.895 64 360 64.8954 360 66V100C360 101.105 360.895 102 362 102H374C375.105 102 376 101.105 376 100V66C376 64.8954 375.105 64 374 64Z" fill="#97C459" stroke="#3B6D11" stroke-width="0.75"/>
<path d="M390 64H378C376.895 64 376 64.8954 376 66V100C376 101.105 376.895 102 378 102H390C391.105 102 392 101.105 392 100V66C392 64.8954 391.105 64 390 64Z" fill="#97C459" stroke="#3B6D11" stroke-width="0.75"/>
<path d="M406 64H394C392.895 64 392 64.8954 392 66V100C392 101.105 392.895 102 394 102H406C407.105 102 408 101.105 408 100V66C408 64.8954 407.105 64 406 64Z" fill="#97C459" stroke="#3B6D11" stroke-width="0.75"/>
<path d="M422 64H410C408.895 64 408 64.8954 408 66V100C408 101.105 408.895 102 410 102H422C423.105 102 424 101.105 424 100V66C424 64.8954 423.105 64 422 64Z" fill="#97C459" stroke="#3B6D11" stroke-width="0.75"/>
<path d="M438 64H426C424.895 64 424 64.8954 424 66V100C424 101.105 424.895 102 426 102H438C439.105 102 440 101.105 440 100V66C440 64.8954 439.105 64 438 64Z" fill="#97C459" stroke="#3B6D11" stroke-width="0.75"/>
<path d="M454 64H442C440.895 64 440 64.8954 440 66V100C440 101.105 440.895 102 442 102H454C455.105 102 456 101.105 456 100V66C456 64.8954 455.105 64 454 64Z" fill="#97C459" stroke="#3B6D11" stroke-width="0.75"/>
<path d="M470 64H458C456.895 64 456 64.8954 456 66V100C456 101.105 456.895 102 458 102H470C471.105 102 472 101.105 472 100V66C472 64.8954 471.105 64 470 64Z" fill="#97C459" stroke="#3B6D11" stroke-width="0.75"/>
<path d="M486 64H474C472.895 64 472 64.8954 472 66V100C472 101.105 472.895 102 474 102H486C487.105 102 488 101.105 488 100V66C488 64.8954 487.105 64 486 64Z" fill="#97C459" stroke="#3B6D11" stroke-width="0.75"/>
<path d="M502 64H490C488.895 64 488 64.8954 488 66V100C488 101.105 488.895 102 490 102H502C503.105 102 504 101.105 504 100V66C504 64.8954 503.105 64 502 64Z" fill="#97C459" stroke="#3B6D11" stroke-width="0.75"/>
<path d="M518 64H506C504.895 64 504 64.8954 504 66V100C504 101.105 504.895 102 506 102H518C519.105 102 520 101.105 520 100V66C520 64.8954 519.105 64 518 64Z" fill="#97C459" stroke="#3B6D11" stroke-width="0.75"/>
<path d="M534 64H522C520.895 64 520 64.8954 520 66V100C520 101.105 520.895 102 522 102H534C535.105 102 536 101.105 536 100V66C536 64.8954 535.105 64 534 64Z" fill="#97C459" stroke="#3B6D11" stroke-width="0.75"/>
<path d="M550 64H538C536.895 64 536 64.8954 536 66V100C536 101.105 536.895 102 538 102H550C551.105 102 552 101.105 552 100V66C552 64.8954 551.105 64 550 64Z" fill="#97C459" stroke="#3B6D11" stroke-width="0.75"/>
<path d="M566 64H554C552.895 64 552 64.8954 552 66V100C552 101.105 552.895 102 554 102H566C567.105 102 568 101.105 568 100V66C568 64.8954 567.105 64 566 64Z" fill="#97C459" stroke="#3B6D11" stroke-width="0.75"/>
<path d="M582 64H570C568.895 64 568 64.8954 568 66V100C568 101.105 568.895 102 570 102H582C583.105 102 584 101.105 584 100V66C584 64.8954 583.105 64 582 64Z" fill="#97C459" stroke="#3B6D11" stroke-width="0.75"/>
<path d="M181.26 126.119C180.698 126.119 180.197 126.023 179.756 125.83C179.319 125.636 178.971 125.368 178.712 125.024C178.456 124.678 178.317 124.276 178.295 123.818H179.368C179.391 124.099 179.488 124.342 179.658 124.547C179.829 124.749 180.052 124.905 180.327 125.016C180.603 125.126 180.908 125.182 181.243 125.182C181.618 125.182 181.951 125.116 182.241 124.986C182.53 124.855 182.758 124.673 182.922 124.44C183.087 124.207 183.17 123.938 183.17 123.631C183.17 123.31 183.09 123.027 182.931 122.783C182.772 122.536 182.539 122.342 182.232 122.203C181.925 122.064 181.55 121.994 181.107 121.994H180.408V121.057H181.107C181.454 121.057 181.758 120.994 182.019 120.869C182.283 120.744 182.489 120.568 182.637 120.341C182.787 120.114 182.863 119.847 182.863 119.54C182.863 119.244 182.797 118.987 182.667 118.768C182.536 118.55 182.351 118.379 182.113 118.257C181.877 118.135 181.599 118.074 181.278 118.074C180.976 118.074 180.692 118.129 180.425 118.24C180.161 118.348 179.945 118.506 179.778 118.713C179.61 118.918 179.519 119.165 179.505 119.455H178.482C178.499 118.997 178.637 118.597 178.895 118.253C179.154 117.906 179.492 117.636 179.91 117.443C180.33 117.25 180.792 117.153 181.295 117.153C181.834 117.153 182.297 117.263 182.684 117.482C183.07 117.697 183.367 117.983 183.574 118.338C183.782 118.693 183.885 119.077 183.885 119.489C183.885 119.98 183.756 120.399 183.498 120.746C183.242 121.092 182.894 121.332 182.454 121.466V121.534C183.005 121.625 183.435 121.859 183.745 122.237C184.055 122.612 184.209 123.077 184.209 123.631C184.209 124.105 184.08 124.531 183.822 124.909C183.566 125.284 183.216 125.58 182.773 125.795C182.33 126.011 181.826 126.119 181.26 126.119ZM185.952 126V125.233L188.833 122.08C189.171 121.71 189.449 121.389 189.668 121.116C189.887 120.841 190.049 120.582 190.154 120.341C190.262 120.097 190.316 119.841 190.316 119.574C190.316 119.267 190.242 119.001 190.094 118.777C189.949 118.553 189.751 118.379 189.498 118.257C189.245 118.135 188.961 118.074 188.645 118.074C188.31 118.074 188.018 118.143 187.768 118.283C187.52 118.419 187.329 118.611 187.192 118.858C187.059 119.105 186.992 119.395 186.992 119.727H185.986C185.986 119.216 186.104 118.767 186.34 118.381C186.576 117.994 186.897 117.693 187.303 117.477C187.712 117.261 188.171 117.153 188.68 117.153C189.191 117.153 189.644 117.261 190.039 117.477C190.434 117.693 190.743 117.984 190.968 118.351C191.192 118.717 191.305 119.125 191.305 119.574C191.305 119.895 191.246 120.209 191.13 120.516C191.016 120.82 190.817 121.159 190.533 121.534C190.252 121.906 189.861 122.361 189.361 122.898L187.401 124.994V125.062H191.458V126H185.952ZM196.746 126V117.273H197.752V120.494H197.837C197.911 120.381 198.013 120.236 198.144 120.06C198.278 119.881 198.468 119.722 198.715 119.582C198.965 119.44 199.303 119.369 199.729 119.369C200.28 119.369 200.766 119.507 201.187 119.783C201.607 120.058 201.935 120.449 202.171 120.955C202.407 121.46 202.525 122.057 202.525 122.744C202.525 123.438 202.407 124.038 202.171 124.547C201.935 125.053 201.608 125.445 201.191 125.723C200.773 125.999 200.292 126.136 199.746 126.136C199.326 126.136 198.989 126.067 198.736 125.928C198.483 125.786 198.289 125.625 198.153 125.446C198.016 125.264 197.911 125.114 197.837 124.994H197.718V126H196.746ZM197.735 122.727C197.735 123.222 197.807 123.658 197.952 124.036C198.097 124.411 198.309 124.705 198.587 124.918C198.866 125.128 199.206 125.233 199.61 125.233C200.03 125.233 200.381 125.122 200.662 124.901C200.947 124.676 201.16 124.375 201.302 123.997C201.447 123.616 201.519 123.193 201.519 122.727C201.519 122.267 201.448 121.852 201.306 121.483C201.167 121.111 200.955 120.817 200.671 120.601C200.39 120.382 200.036 120.273 199.61 120.273C199.201 120.273 198.857 120.376 198.579 120.584C198.3 120.788 198.09 121.075 197.948 121.445C197.806 121.811 197.735 122.239 197.735 122.727ZM204.063 126V119.455H205.069V126H204.063ZM204.574 118.364C204.378 118.364 204.209 118.297 204.067 118.163C203.928 118.03 203.858 117.869 203.858 117.682C203.858 117.494 203.928 117.334 204.067 117.2C204.209 117.067 204.378 117 204.574 117C204.77 117 204.938 117.067 205.077 117.2C205.219 117.334 205.29 117.494 205.29 117.682C205.29 117.869 205.219 118.03 205.077 118.163C204.938 118.297 204.77 118.364 204.574 118.364ZM209.757 119.455V120.307H206.365V119.455H209.757ZM207.354 117.886H208.36V124.125C208.36 124.409 208.401 124.622 208.483 124.764C208.568 124.903 208.676 124.997 208.807 125.045C208.941 125.091 209.081 125.114 209.229 125.114C209.34 125.114 209.431 125.108 209.502 125.097C209.573 125.082 209.629 125.071 209.672 125.062L209.877 125.966C209.808 125.991 209.713 126.017 209.591 126.043C209.469 126.071 209.314 126.085 209.127 126.085C208.843 126.085 208.564 126.024 208.291 125.902C208.021 125.78 207.797 125.594 207.618 125.344C207.442 125.094 207.354 124.778 207.354 124.398V117.886ZM215.789 120.92L214.886 121.176C214.829 121.026 214.745 120.879 214.634 120.737C214.526 120.592 214.379 120.473 214.191 120.379C214.004 120.286 213.764 120.239 213.471 120.239C213.07 120.239 212.737 120.331 212.47 120.516C212.205 120.697 212.073 120.929 212.073 121.21C212.073 121.46 212.164 121.658 212.346 121.803C212.528 121.947 212.812 122.068 213.198 122.165L214.17 122.403C214.755 122.545 215.191 122.763 215.478 123.055C215.765 123.345 215.909 123.719 215.909 124.176C215.909 124.551 215.801 124.886 215.585 125.182C215.372 125.477 215.073 125.71 214.69 125.881C214.306 126.051 213.86 126.136 213.352 126.136C212.684 126.136 212.132 125.991 211.694 125.702C211.257 125.412 210.98 124.989 210.863 124.432L211.818 124.193C211.909 124.545 212.08 124.81 212.333 124.986C212.589 125.162 212.923 125.25 213.335 125.25C213.803 125.25 214.176 125.151 214.451 124.952C214.73 124.75 214.869 124.509 214.869 124.227C214.869 124 214.789 123.81 214.63 123.656C214.471 123.5 214.227 123.384 213.897 123.307L212.806 123.051C212.207 122.909 211.767 122.689 211.485 122.391C211.207 122.089 211.068 121.713 211.068 121.261C211.068 120.892 211.171 120.565 211.379 120.281C211.589 119.997 211.874 119.774 212.235 119.612C212.599 119.45 213.011 119.369 213.471 119.369C214.119 119.369 214.627 119.511 214.997 119.795C215.369 120.08 215.633 120.455 215.789 120.92ZM223.644 119.455V120.307H220.252V119.455H223.644ZM221.241 117.886H222.246V124.125C222.246 124.409 222.287 124.622 222.37 124.764C222.455 124.903 222.563 124.997 222.694 125.045C222.827 125.091 222.968 125.114 223.116 125.114C223.226 125.114 223.317 125.108 223.388 125.097C223.459 125.082 223.516 125.071 223.559 125.062L223.763 125.966C223.695 125.991 223.6 126.017 223.478 126.043C223.356 126.071 223.201 126.085 223.013 126.085C222.729 126.085 222.451 126.024 222.178 125.902C221.908 125.78 221.684 125.594 221.505 125.344C221.329 125.094 221.241 124.778 221.241 124.398V117.886ZM227.746 126.136C227.155 126.136 226.636 125.996 226.19 125.714C225.747 125.433 225.4 125.04 225.15 124.534C224.903 124.028 224.78 123.437 224.78 122.761C224.78 122.08 224.903 121.484 225.15 120.976C225.4 120.467 225.747 120.072 226.19 119.791C226.636 119.51 227.155 119.369 227.746 119.369C228.336 119.369 228.854 119.51 229.297 119.791C229.743 120.072 230.089 120.467 230.336 120.976C230.586 121.484 230.711 122.08 230.711 122.761C230.711 123.437 230.586 124.028 230.336 124.534C230.089 125.04 229.743 125.433 229.297 125.714C228.854 125.996 228.336 126.136 227.746 126.136ZM227.746 125.233C228.194 125.233 228.564 125.118 228.854 124.888C229.143 124.658 229.358 124.355 229.497 123.98C229.636 123.605 229.706 123.199 229.706 122.761C229.706 122.324 229.636 121.916 229.497 121.538C229.358 121.161 229.143 120.855 228.854 120.622C228.564 120.389 228.194 120.273 227.746 120.273C227.297 120.273 226.927 120.389 226.638 120.622C226.348 120.855 226.133 121.161 225.994 121.538C225.855 121.916 225.785 122.324 225.785 122.761C225.785 123.199 225.855 123.605 225.994 123.98C226.133 124.355 226.348 124.658 226.638 124.888C226.927 125.118 227.297 125.233 227.746 125.233ZM235.093 119.455V120.307H231.701V119.455H235.093ZM232.69 117.886H233.695V124.125C233.695 124.409 233.737 124.622 233.819 124.764C233.904 124.903 234.012 124.997 234.143 125.045C234.276 125.091 234.417 125.114 234.565 125.114C234.676 125.114 234.767 125.108 234.838 125.097C234.909 125.082 234.965 125.071 235.008 125.062L235.213 125.966C235.144 125.991 235.049 126.017 234.927 126.043C234.805 126.071 234.65 126.085 234.463 126.085C234.178 126.085 233.9 126.024 233.627 125.902C233.357 125.78 233.133 125.594 232.954 125.344C232.778 125.094 232.69 124.778 232.69 124.398V117.886ZM238.532 126.153C238.117 126.153 237.741 126.075 237.403 125.919C237.065 125.76 236.796 125.531 236.597 125.233C236.399 124.932 236.299 124.568 236.299 124.142C236.299 123.767 236.373 123.463 236.521 123.23C236.669 122.994 236.866 122.81 237.113 122.676C237.36 122.543 237.633 122.443 237.931 122.378C238.232 122.31 238.535 122.256 238.839 122.216C239.237 122.165 239.559 122.126 239.806 122.101C240.056 122.072 240.238 122.026 240.352 121.96C240.468 121.895 240.526 121.781 240.526 121.619V121.585C240.526 121.165 240.411 120.838 240.181 120.605C239.954 120.372 239.609 120.256 239.146 120.256C238.666 120.256 238.289 120.361 238.017 120.571C237.744 120.781 237.552 121.006 237.441 121.244L236.487 120.903C236.657 120.506 236.884 120.196 237.169 119.974C237.455 119.75 237.768 119.594 238.106 119.506C238.447 119.415 238.782 119.369 239.112 119.369C239.322 119.369 239.563 119.395 239.836 119.446C240.112 119.494 240.377 119.595 240.633 119.749C240.892 119.902 241.106 120.134 241.276 120.443C241.447 120.753 241.532 121.168 241.532 121.688V126H240.526V125.114H240.475C240.407 125.256 240.294 125.408 240.134 125.57C239.975 125.732 239.764 125.869 239.499 125.983C239.235 126.097 238.913 126.153 238.532 126.153ZM238.686 125.25C239.083 125.25 239.419 125.172 239.691 125.016C239.967 124.859 240.174 124.658 240.313 124.411C240.455 124.163 240.526 123.903 240.526 123.631V122.71C240.484 122.761 240.39 122.808 240.245 122.851C240.103 122.891 239.938 122.926 239.751 122.957C239.566 122.986 239.386 123.011 239.21 123.034C239.036 123.054 238.896 123.071 238.788 123.085C238.526 123.119 238.282 123.175 238.055 123.251C237.83 123.325 237.649 123.437 237.509 123.588C237.373 123.736 237.305 123.937 237.305 124.193C237.305 124.543 237.434 124.807 237.693 124.986C237.954 125.162 238.285 125.25 238.686 125.25ZM244.373 117.273V126H243.368V117.273H244.373ZM249.999 120.835V119.915H255.249V120.835H249.999ZM249.999 123.358V122.438H255.249V123.358H249.999ZM263.927 117.273V126H262.87V118.381H262.819L260.688 119.795V118.722L262.87 117.273H263.927ZM274.465 120.92L273.562 121.176C273.505 121.026 273.421 120.879 273.31 120.737C273.202 120.592 273.055 120.473 272.867 120.379C272.68 120.286 272.439 120.239 272.147 120.239C271.746 120.239 271.412 120.331 271.145 120.516C270.881 120.697 270.749 120.929 270.749 121.21C270.749 121.46 270.84 121.658 271.022 121.803C271.204 121.947 271.488 122.068 271.874 122.165L272.846 122.403C273.431 122.545 273.867 122.763 274.154 123.055C274.441 123.345 274.584 123.719 274.584 124.176C274.584 124.551 274.476 124.886 274.26 125.182C274.047 125.477 273.749 125.71 273.366 125.881C272.982 126.051 272.536 126.136 272.028 126.136C271.36 126.136 270.807 125.991 270.37 125.702C269.932 125.412 269.655 124.989 269.539 124.432L270.493 124.193C270.584 124.545 270.756 124.81 271.009 124.986C271.265 125.162 271.599 125.25 272.01 125.25C272.479 125.25 272.851 125.151 273.127 124.952C273.405 124.75 273.545 124.509 273.545 124.227C273.545 124 273.465 123.81 273.306 123.656C273.147 123.5 272.903 123.384 272.573 123.307L271.482 123.051C270.883 122.909 270.442 122.689 270.161 122.391C269.883 122.089 269.743 121.713 269.743 121.261C269.743 120.892 269.847 120.565 270.055 120.281C270.265 119.997 270.55 119.774 270.911 119.612C271.275 119.45 271.687 119.369 272.147 119.369C272.795 119.369 273.303 119.511 273.672 119.795C274.045 120.08 274.309 120.455 274.465 120.92ZM276.098 126V119.455H277.104V126H276.098ZM276.61 118.364C276.414 118.364 276.244 118.297 276.102 118.163C275.963 118.03 275.894 117.869 275.894 117.682C275.894 117.494 275.963 117.334 276.102 117.2C276.244 117.067 276.414 117 276.61 117C276.806 117 276.973 117.067 277.112 117.2C277.254 117.334 277.325 117.494 277.325 117.682C277.325 117.869 277.254 118.03 277.112 118.163C276.973 118.297 276.806 118.364 276.61 118.364ZM281.588 128.591C281.102 128.591 280.684 128.528 280.335 128.403C279.986 128.281 279.694 128.119 279.461 127.918C279.231 127.719 279.048 127.506 278.912 127.278L279.713 126.716C279.804 126.835 279.919 126.972 280.058 127.125C280.197 127.281 280.388 127.416 280.629 127.53C280.873 127.646 281.193 127.705 281.588 127.705C282.116 127.705 282.552 127.577 282.896 127.321C283.24 127.065 283.412 126.665 283.412 126.119V124.79H283.327C283.253 124.909 283.148 125.057 283.011 125.233C282.878 125.406 282.684 125.561 282.432 125.697C282.182 125.831 281.844 125.898 281.417 125.898C280.889 125.898 280.415 125.773 279.994 125.523C279.577 125.273 279.246 124.909 279.001 124.432C278.76 123.955 278.639 123.375 278.639 122.693C278.639 122.023 278.757 121.439 278.993 120.942C279.229 120.442 279.557 120.055 279.977 119.783C280.398 119.507 280.883 119.369 281.434 119.369C281.861 119.369 282.199 119.44 282.449 119.582C282.702 119.722 282.895 119.881 283.028 120.06C283.165 120.236 283.27 120.381 283.344 120.494H283.446V119.455H284.417V126.188C284.417 126.75 284.29 127.207 284.034 127.56C283.781 127.915 283.44 128.175 283.011 128.339C282.585 128.507 282.111 128.591 281.588 128.591ZM281.554 124.994C281.957 124.994 282.298 124.902 282.577 124.717C282.855 124.533 283.067 124.267 283.211 123.92C283.356 123.574 283.429 123.159 283.429 122.676C283.429 122.205 283.358 121.788 283.216 121.428C283.074 121.067 282.863 120.784 282.585 120.58C282.307 120.375 281.963 120.273 281.554 120.273C281.128 120.273 280.773 120.381 280.488 120.597C280.207 120.812 279.996 121.102 279.854 121.466C279.714 121.83 279.645 122.233 279.645 122.676C279.645 123.131 279.716 123.533 279.858 123.882C280.003 124.229 280.216 124.501 280.497 124.7C280.781 124.896 281.133 124.994 281.554 124.994ZM287.264 122.062V126H286.258V119.455H287.23V120.477H287.315C287.469 120.145 287.702 119.878 288.014 119.676C288.327 119.472 288.73 119.369 289.224 119.369C289.667 119.369 290.055 119.46 290.388 119.642C290.72 119.821 290.979 120.094 291.163 120.46C291.348 120.824 291.44 121.284 291.44 121.841V126H290.434V121.909C290.434 121.395 290.301 120.994 290.034 120.707C289.767 120.418 289.4 120.273 288.934 120.273C288.613 120.273 288.327 120.342 288.074 120.482C287.824 120.621 287.626 120.824 287.481 121.091C287.336 121.358 287.264 121.682 287.264 122.062ZM299.21 124.466V118.841H300.164V124.466H299.21ZM296.874 122.131V121.176H302.499V122.131H296.874ZM310.716 126.119C310.131 126.119 309.614 126.016 309.165 125.808C308.719 125.598 308.371 125.31 308.121 124.943C307.871 124.574 307.748 124.153 307.751 123.682C307.748 123.312 307.82 122.972 307.968 122.659C308.116 122.344 308.317 122.081 308.573 121.871C308.831 121.658 309.12 121.523 309.438 121.466V121.415C309.02 121.307 308.688 121.072 308.441 120.712C308.194 120.348 308.072 119.935 308.074 119.472C308.072 119.028 308.184 118.632 308.411 118.283C308.638 117.933 308.951 117.658 309.349 117.456C309.749 117.254 310.205 117.153 310.716 117.153C311.222 117.153 311.674 117.254 312.072 117.456C312.469 117.658 312.782 117.933 313.009 118.283C313.239 118.632 313.356 119.028 313.358 119.472C313.356 119.935 313.229 120.348 312.979 120.712C312.732 121.072 312.404 121.307 311.995 121.415V121.466C312.31 121.523 312.594 121.658 312.847 121.871C313.1 122.081 313.302 122.344 313.452 122.659C313.603 122.972 313.68 123.312 313.682 123.682C313.68 124.153 313.552 124.574 313.299 124.943C313.049 125.31 312.701 125.598 312.255 125.808C311.812 126.016 311.299 126.119 310.716 126.119ZM310.716 125.182C311.111 125.182 311.452 125.118 311.739 124.99C312.026 124.862 312.248 124.682 312.404 124.449C312.56 124.216 312.64 123.943 312.643 123.631C312.64 123.301 312.555 123.01 312.387 122.757C312.219 122.504 311.991 122.305 311.701 122.161C311.414 122.016 311.086 121.943 310.716 121.943C310.344 121.943 310.012 122.016 309.719 122.161C309.43 122.305 309.201 122.504 309.033 122.757C308.868 123.01 308.787 123.301 308.79 123.631C308.787 123.943 308.863 124.216 309.016 124.449C309.172 124.682 309.395 124.862 309.685 124.99C309.975 125.118 310.319 125.182 310.716 125.182ZM310.716 121.04C311.029 121.04 311.306 120.977 311.547 120.852C311.792 120.727 311.983 120.553 312.123 120.328C312.262 120.104 312.333 119.841 312.336 119.54C312.333 119.244 312.263 118.987 312.127 118.768C311.991 118.547 311.802 118.376 311.56 118.257C311.319 118.135 311.037 118.074 310.716 118.074C310.39 118.074 310.104 118.135 309.86 118.257C309.616 118.376 309.427 118.547 309.293 118.768C309.16 118.987 309.094 119.244 309.097 119.54C309.094 119.841 309.161 120.104 309.297 120.328C309.437 120.553 309.628 120.727 309.873 120.852C310.117 120.977 310.398 121.04 310.716 121.04ZM321.452 126.136C320.821 126.136 320.277 125.997 319.82 125.719C319.365 125.438 319.014 125.045 318.767 124.543C318.523 124.037 318.401 123.449 318.401 122.778C318.401 122.108 318.523 121.517 318.767 121.006C319.014 120.491 319.358 120.091 319.798 119.804C320.242 119.514 320.759 119.369 321.35 119.369C321.691 119.369 322.027 119.426 322.36 119.54C322.692 119.653 322.994 119.838 323.267 120.094C323.54 120.347 323.757 120.682 323.919 121.099C324.081 121.517 324.162 122.031 324.162 122.642V123.068H319.117V122.199H323.139C323.139 121.83 323.066 121.5 322.918 121.21C322.773 120.92 322.566 120.692 322.296 120.524C322.029 120.357 321.713 120.273 321.35 120.273C320.949 120.273 320.602 120.372 320.31 120.571C320.02 120.767 319.797 121.023 319.641 121.338C319.485 121.653 319.406 121.991 319.406 122.352V122.932C319.406 123.426 319.492 123.845 319.662 124.189C319.835 124.53 320.075 124.79 320.382 124.969C320.689 125.145 321.046 125.233 321.452 125.233C321.716 125.233 321.955 125.196 322.168 125.122C322.384 125.045 322.57 124.932 322.726 124.781C322.882 124.628 323.003 124.437 323.088 124.21L324.06 124.483C323.958 124.812 323.786 125.102 323.544 125.352C323.303 125.599 323.004 125.793 322.649 125.932C322.294 126.068 321.895 126.136 321.452 126.136ZM326.266 119.455L327.834 122.131L329.403 119.455H330.562L328.448 122.727L330.562 126H329.403L327.834 123.46L326.266 126H325.107L327.187 122.727L325.107 119.455H326.266ZM331.997 128.455V119.455H332.968V120.494H333.088C333.161 120.381 333.264 120.236 333.394 120.06C333.528 119.881 333.718 119.722 333.965 119.582C334.215 119.44 334.553 119.369 334.98 119.369C335.531 119.369 336.017 119.507 336.437 119.783C336.857 120.058 337.186 120.449 337.421 120.955C337.657 121.46 337.775 122.057 337.775 122.744C337.775 123.438 337.657 124.038 337.421 124.547C337.186 125.053 336.859 125.445 336.441 125.723C336.024 125.999 335.542 126.136 334.997 126.136C334.576 126.136 334.24 126.067 333.987 125.928C333.734 125.786 333.539 125.625 333.403 125.446C333.267 125.264 333.161 125.114 333.088 124.994H333.002V128.455H331.997ZM332.985 122.727C332.985 123.222 333.058 123.658 333.203 124.036C333.347 124.411 333.559 124.705 333.838 124.918C334.116 125.128 334.457 125.233 334.86 125.233C335.281 125.233 335.632 125.122 335.913 124.901C336.197 124.676 336.41 124.375 336.552 123.997C336.697 123.616 336.769 123.193 336.769 122.727C336.769 122.267 336.698 121.852 336.556 121.483C336.417 121.111 336.205 120.817 335.921 120.601C335.64 120.382 335.286 120.273 334.86 120.273C334.451 120.273 334.107 120.376 333.829 120.584C333.551 120.788 333.34 121.075 333.198 121.445C333.056 121.811 332.985 122.239 332.985 122.727ZM341.968 126.136C341.377 126.136 340.859 125.996 340.413 125.714C339.97 125.433 339.623 125.04 339.373 124.534C339.126 124.028 339.002 123.437 339.002 122.761C339.002 122.08 339.126 121.484 339.373 120.976C339.623 120.467 339.97 120.072 340.413 119.791C340.859 119.51 341.377 119.369 341.968 119.369C342.559 119.369 343.076 119.51 343.519 119.791C343.965 120.072 344.312 120.467 344.559 120.976C344.809 121.484 344.934 122.08 344.934 122.761C344.934 123.437 344.809 124.028 344.559 124.534C344.312 125.04 343.965 125.433 343.519 125.714C343.076 125.996 342.559 126.136 341.968 126.136ZM341.968 125.233C342.417 125.233 342.786 125.118 343.076 124.888C343.366 124.658 343.58 124.355 343.72 123.98C343.859 123.605 343.928 123.199 343.928 122.761C343.928 122.324 343.859 121.916 343.72 121.538C343.58 121.161 343.366 120.855 343.076 120.622C342.786 120.389 342.417 120.273 341.968 120.273C341.519 120.273 341.15 120.389 340.86 120.622C340.57 120.855 340.356 121.161 340.217 121.538C340.078 121.916 340.008 122.324 340.008 122.761C340.008 123.199 340.078 123.605 340.217 123.98C340.356 124.355 340.57 124.658 340.86 124.888C341.15 125.118 341.519 125.233 341.968 125.233ZM347.475 122.062V126H346.469V119.455H347.441V120.477H347.526C347.68 120.145 347.912 119.878 348.225 119.676C348.537 119.472 348.941 119.369 349.435 119.369C349.878 119.369 350.266 119.46 350.599 119.642C350.931 119.821 351.189 120.094 351.374 120.46C351.559 120.824 351.651 121.284 351.651 121.841V126H350.645V121.909C350.645 121.395 350.512 120.994 350.245 120.707C349.978 120.418 349.611 120.273 349.145 120.273C348.824 120.273 348.537 120.342 348.285 120.482C348.035 120.621 347.837 120.824 347.692 121.091C347.547 121.358 347.475 121.682 347.475 122.062ZM356.233 126.136C355.602 126.136 355.058 125.997 354.601 125.719C354.146 125.438 353.796 125.045 353.548 124.543C353.304 124.037 353.182 123.449 353.182 122.778C353.182 122.108 353.304 121.517 353.548 121.006C353.796 120.491 354.139 120.091 354.58 119.804C355.023 119.514 355.54 119.369 356.131 119.369C356.472 119.369 356.808 119.426 357.141 119.54C357.473 119.653 357.776 119.838 358.048 120.094C358.321 120.347 358.539 120.682 358.7 121.099C358.862 121.517 358.943 122.031 358.943 122.642V123.068H353.898V122.199H357.921C357.921 121.83 357.847 121.5 357.699 121.21C357.554 120.92 357.347 120.692 357.077 120.524C356.81 120.357 356.494 120.273 356.131 120.273C355.73 120.273 355.384 120.372 355.091 120.571C354.801 120.767 354.578 121.023 354.422 121.338C354.266 121.653 354.188 121.991 354.188 122.352V122.932C354.188 123.426 354.273 123.845 354.443 124.189C354.617 124.53 354.857 124.79 355.164 124.969C355.47 125.145 355.827 125.233 356.233 125.233C356.497 125.233 356.736 125.196 356.949 125.122C357.165 125.045 357.351 124.932 357.507 124.781C357.664 124.628 357.784 124.437 357.869 124.21L358.841 124.483C358.739 124.812 358.567 125.102 358.325 125.352C358.084 125.599 357.786 125.793 357.431 125.932C357.075 126.068 356.676 126.136 356.233 126.136ZM361.479 122.062V126H360.473V119.455H361.445V120.477H361.53C361.683 120.145 361.916 119.878 362.229 119.676C362.541 119.472 362.945 119.369 363.439 119.369C363.882 119.369 364.27 119.46 364.602 119.642C364.935 119.821 365.193 120.094 365.378 120.46C365.563 120.824 365.655 121.284 365.655 121.841V126H364.649V121.909C364.649 121.395 364.516 120.994 364.249 120.707C363.982 120.418 363.615 120.273 363.149 120.273C362.828 120.273 362.541 120.342 362.289 120.482C362.039 120.621 361.841 120.824 361.696 121.091C361.551 121.358 361.479 121.682 361.479 122.062ZM370.339 119.455V120.307H366.947V119.455H370.339ZM367.936 117.886H368.942V124.125C368.942 124.409 368.983 124.622 369.065 124.764C369.15 124.903 369.258 124.997 369.389 125.045C369.523 125.091 369.663 125.114 369.811 125.114C369.922 125.114 370.013 125.108 370.084 125.097C370.155 125.082 370.211 125.071 370.254 125.062L370.459 125.966C370.39 125.991 370.295 126.017 370.173 126.043C370.051 126.071 369.896 126.085 369.709 126.085C369.425 126.085 369.146 126.024 368.873 125.902C368.604 125.78 368.379 125.594 368.2 125.344C368.024 125.094 367.936 124.778 367.936 124.398V117.886ZM377.784 124.466V118.841H378.738V124.466H377.784ZM375.449 122.131V121.176H381.074V122.131H375.449ZM386.495 126V125.233L389.376 122.08C389.714 121.71 389.992 121.389 390.211 121.116C390.43 120.841 390.592 120.582 390.697 120.341C390.805 120.097 390.859 119.841 390.859 119.574C390.859 119.267 390.785 119.001 390.637 118.777C390.492 118.553 390.294 118.379 390.041 118.257C389.788 118.135 389.504 118.074 389.188 118.074C388.853 118.074 388.561 118.143 388.311 118.283C388.063 118.419 387.872 118.611 387.735 118.858C387.602 119.105 387.535 119.395 387.535 119.727H386.529C386.529 119.216 386.647 118.767 386.883 118.381C387.119 117.994 387.44 117.693 387.846 117.477C388.255 117.261 388.714 117.153 389.222 117.153C389.734 117.153 390.187 117.261 390.582 117.477C390.977 117.693 391.286 117.984 391.511 118.351C391.735 118.717 391.847 119.125 391.847 119.574C391.847 119.895 391.789 120.209 391.673 120.516C391.559 120.82 391.36 121.159 391.076 121.534C390.795 121.906 390.404 122.361 389.904 122.898L387.944 124.994V125.062H392.001V126H386.495ZM396.71 126.119C396.147 126.119 395.646 126.023 395.205 125.83C394.768 125.636 394.42 125.368 394.161 125.024C393.906 124.678 393.767 124.276 393.744 123.818H394.818C394.84 124.099 394.937 124.342 395.107 124.547C395.278 124.749 395.501 124.905 395.776 125.016C396.052 125.126 396.357 125.182 396.693 125.182C397.068 125.182 397.4 125.116 397.69 124.986C397.98 124.855 398.207 124.673 398.372 124.44C398.536 124.207 398.619 123.938 398.619 123.631C398.619 123.31 398.539 123.027 398.38 122.783C398.221 122.536 397.988 122.342 397.681 122.203C397.374 122.064 396.999 121.994 396.556 121.994H395.857V121.057H396.556C396.903 121.057 397.207 120.994 397.468 120.869C397.732 120.744 397.938 120.568 398.086 120.341C398.237 120.114 398.312 119.847 398.312 119.54C398.312 119.244 398.247 118.987 398.116 118.768C397.985 118.55 397.801 118.379 397.562 118.257C397.326 118.135 397.048 118.074 396.727 118.074C396.426 118.074 396.142 118.129 395.874 118.24C395.61 118.348 395.394 118.506 395.227 118.713C395.059 118.918 394.968 119.165 394.954 119.455H393.931C393.948 118.997 394.086 118.597 394.345 118.253C394.603 117.906 394.941 117.636 395.359 117.443C395.779 117.25 396.241 117.153 396.744 117.153C397.284 117.153 397.747 117.263 398.133 117.482C398.519 117.697 398.816 117.983 399.024 118.338C399.231 118.693 399.335 119.077 399.335 119.489C399.335 119.98 399.205 120.399 398.947 120.746C398.691 121.092 398.343 121.332 397.903 121.466V121.534C398.454 121.625 398.884 121.859 399.194 122.237C399.504 122.612 399.659 123.077 399.659 123.631C399.659 124.105 399.529 124.531 399.271 124.909C399.015 125.284 398.666 125.58 398.222 125.795C397.779 126.011 397.275 126.119 396.71 126.119ZM404.794 126V119.455H405.765V120.477H405.85C405.987 120.128 406.207 119.857 406.511 119.663C406.815 119.467 407.18 119.369 407.606 119.369C408.038 119.369 408.397 119.467 408.684 119.663C408.974 119.857 409.2 120.128 409.362 120.477H409.43C409.597 120.139 409.849 119.871 410.184 119.672C410.519 119.47 410.921 119.369 411.39 119.369C411.975 119.369 412.454 119.553 412.826 119.919C413.198 120.283 413.384 120.849 413.384 121.619V126H412.379V121.619C412.379 121.136 412.247 120.791 411.982 120.584C411.718 120.376 411.407 120.273 411.049 120.273C410.589 120.273 410.232 120.412 409.98 120.69C409.727 120.966 409.6 121.315 409.6 121.739V126H408.578V121.517C408.578 121.145 408.457 120.845 408.215 120.618C407.974 120.388 407.663 120.273 407.282 120.273C407.021 120.273 406.776 120.342 406.549 120.482C406.325 120.621 406.143 120.814 406.004 121.061C405.867 121.305 405.799 121.588 405.799 121.909V126H404.794ZM417.149 126.153C416.735 126.153 416.358 126.075 416.02 125.919C415.682 125.76 415.414 125.531 415.215 125.233C415.016 124.932 414.916 124.568 414.916 124.142C414.916 123.767 414.99 123.463 415.138 123.23C415.286 122.994 415.483 122.81 415.73 122.676C415.977 122.543 416.25 122.443 416.548 122.378C416.85 122.31 417.152 122.256 417.456 122.216C417.854 122.165 418.176 122.126 418.423 122.101C418.673 122.072 418.855 122.026 418.969 121.96C419.085 121.895 419.144 121.781 419.144 121.619V121.585C419.144 121.165 419.029 120.838 418.798 120.605C418.571 120.372 418.226 120.256 417.763 120.256C417.283 120.256 416.906 120.361 416.634 120.571C416.361 120.781 416.169 121.006 416.058 121.244L415.104 120.903C415.274 120.506 415.502 120.196 415.786 119.974C416.073 119.75 416.385 119.594 416.723 119.506C417.064 119.415 417.399 119.369 417.729 119.369C417.939 119.369 418.181 119.395 418.453 119.446C418.729 119.494 418.994 119.595 419.25 119.749C419.509 119.902 419.723 120.134 419.894 120.443C420.064 120.753 420.149 121.168 420.149 121.688V126H419.144V125.114H419.093C419.024 125.256 418.911 125.408 418.752 125.57C418.593 125.732 418.381 125.869 418.117 125.983C417.852 126.097 417.53 126.153 417.149 126.153ZM417.303 125.25C417.7 125.25 418.036 125.172 418.308 125.016C418.584 124.859 418.791 124.658 418.931 124.411C419.073 124.163 419.144 123.903 419.144 123.631V122.71C419.101 122.761 419.007 122.808 418.862 122.851C418.72 122.891 418.556 122.926 418.368 122.957C418.183 122.986 418.003 123.011 417.827 123.034C417.654 123.054 417.513 123.071 417.405 123.085C417.144 123.119 416.899 123.175 416.672 123.251C416.448 123.325 416.266 123.437 416.127 123.588C415.99 123.736 415.922 123.937 415.922 124.193C415.922 124.543 416.051 124.807 416.31 124.986C416.571 125.162 416.902 125.25 417.303 125.25ZM422.991 122.062V126H421.985V119.455H422.956V120.477H423.042C423.195 120.145 423.428 119.878 423.741 119.676C424.053 119.472 424.456 119.369 424.951 119.369C425.394 119.369 425.782 119.46 426.114 119.642C426.447 119.821 426.705 120.094 426.89 120.46C427.074 120.824 427.167 121.284 427.167 121.841V126H426.161V121.909C426.161 121.395 426.028 120.994 425.76 120.707C425.493 120.418 425.127 120.273 424.661 120.273C424.34 120.273 424.053 120.342 423.8 120.482C423.55 120.621 423.353 120.824 423.208 121.091C423.063 121.358 422.991 121.682 422.991 122.062ZM431.851 119.455V120.307H428.459V119.455H431.851ZM429.448 117.886H430.453V124.125C430.453 124.409 430.494 124.622 430.577 124.764C430.662 124.903 430.77 124.997 430.901 125.045C431.034 125.091 431.175 125.114 431.323 125.114C431.433 125.114 431.524 125.108 431.595 125.097C431.666 125.082 431.723 125.071 431.766 125.062L431.97 125.966C431.902 125.991 431.807 126.017 431.685 126.043C431.563 126.071 431.408 126.085 431.22 126.085C430.936 126.085 430.658 126.024 430.385 125.902C430.115 125.78 429.891 125.594 429.712 125.344C429.536 125.094 429.448 124.778 429.448 124.398V117.886ZM433.364 126V119.455H434.369V126H433.364ZM433.875 118.364C433.679 118.364 433.51 118.297 433.368 118.163C433.229 118.03 433.159 117.869 433.159 117.682C433.159 117.494 433.229 117.334 433.368 117.2C433.51 117.067 433.679 117 433.875 117C434.071 117 434.239 117.067 434.378 117.2C434.52 117.334 434.591 117.494 434.591 117.682C434.591 117.869 434.52 118.03 434.378 118.163C434.239 118.297 434.071 118.364 433.875 118.364ZM440.848 120.92L439.944 121.176C439.888 121.026 439.804 120.879 439.693 120.737C439.585 120.592 439.437 120.473 439.25 120.379C439.062 120.286 438.822 120.239 438.53 120.239C438.129 120.239 437.795 120.331 437.528 120.516C437.264 120.697 437.132 120.929 437.132 121.21C437.132 121.46 437.223 121.658 437.405 121.803C437.586 121.947 437.871 122.068 438.257 122.165L439.229 122.403C439.814 122.545 440.25 122.763 440.537 123.055C440.824 123.345 440.967 123.719 440.967 124.176C440.967 124.551 440.859 124.886 440.643 125.182C440.43 125.477 440.132 125.71 439.748 125.881C439.365 126.051 438.919 126.136 438.41 126.136C437.743 126.136 437.19 125.991 436.753 125.702C436.315 125.412 436.038 124.989 435.922 124.432L436.876 124.193C436.967 124.545 437.139 124.81 437.392 124.986C437.648 125.162 437.981 125.25 438.393 125.25C438.862 125.25 439.234 125.151 439.51 124.952C439.788 124.75 439.927 124.509 439.927 124.227C439.927 124 439.848 123.81 439.689 123.656C439.53 123.5 439.285 123.384 438.956 123.307L437.865 123.051C437.265 122.909 436.825 122.689 436.544 122.391C436.265 122.089 436.126 121.713 436.126 121.261C436.126 120.892 436.23 120.565 436.437 120.281C436.648 119.997 436.933 119.774 437.294 119.612C437.657 119.45 438.069 119.369 438.53 119.369C439.177 119.369 439.686 119.511 440.055 119.795C440.427 120.08 440.692 120.455 440.848 120.92ZM447.117 120.92L446.214 121.176C446.157 121.026 446.073 120.879 445.963 120.737C445.855 120.592 445.707 120.473 445.519 120.379C445.332 120.286 445.092 120.239 444.799 120.239C444.399 120.239 444.065 120.331 443.798 120.516C443.534 120.697 443.401 120.929 443.401 121.21C443.401 121.46 443.492 121.658 443.674 121.803C443.856 121.947 444.14 122.068 444.526 122.165L445.498 122.403C446.083 122.545 446.519 122.763 446.806 123.055C447.093 123.345 447.237 123.719 447.237 124.176C447.237 124.551 447.129 124.886 446.913 125.182C446.7 125.477 446.401 125.71 446.018 125.881C445.634 126.051 445.188 126.136 444.68 126.136C444.012 126.136 443.46 125.991 443.022 125.702C442.585 125.412 442.308 124.989 442.191 124.432L443.146 124.193C443.237 124.545 443.409 124.81 443.661 124.986C443.917 125.162 444.251 125.25 444.663 125.25C445.132 125.25 445.504 125.151 445.779 124.952C446.058 124.75 446.197 124.509 446.197 124.227C446.197 124 446.117 123.81 445.958 123.656C445.799 123.5 445.555 123.384 445.225 123.307L444.134 123.051C443.535 122.909 443.095 122.689 442.813 122.391C442.535 122.089 442.396 121.713 442.396 121.261C442.396 120.892 442.499 120.565 442.707 120.281C442.917 119.997 443.203 119.774 443.563 119.612C443.927 119.45 444.339 119.369 444.799 119.369C445.447 119.369 445.955 119.511 446.325 119.795C446.697 120.08 446.961 120.455 447.117 120.92ZM450.677 126.153C450.262 126.153 449.885 126.075 449.547 125.919C449.209 125.76 448.941 125.531 448.742 125.233C448.543 124.932 448.444 124.568 448.444 124.142C448.444 123.767 448.518 123.463 448.665 123.23C448.813 122.994 449.01 122.81 449.258 122.676C449.505 122.543 449.778 122.443 450.076 122.378C450.377 122.31 450.68 122.256 450.983 122.216C451.381 122.165 451.704 122.126 451.951 122.101C452.201 122.072 452.383 122.026 452.496 121.96C452.613 121.895 452.671 121.781 452.671 121.619V121.585C452.671 121.165 452.556 120.838 452.326 120.605C452.099 120.372 451.753 120.256 451.29 120.256C450.81 120.256 450.434 120.361 450.161 120.571C449.888 120.781 449.697 121.006 449.586 121.244L448.631 120.903C448.802 120.506 449.029 120.196 449.313 119.974C449.6 119.75 449.912 119.594 450.251 119.506C450.591 119.415 450.927 119.369 451.256 119.369C451.466 119.369 451.708 119.395 451.981 119.446C452.256 119.494 452.522 119.595 452.778 119.749C453.036 119.902 453.251 120.134 453.421 120.443C453.591 120.753 453.677 121.168 453.677 121.688V126H452.671V125.114H452.62C452.552 125.256 452.438 125.408 452.279 125.57C452.12 125.732 451.908 125.869 451.644 125.983C451.38 126.097 451.057 126.153 450.677 126.153ZM450.83 125.25C451.228 125.25 451.563 125.172 451.836 125.016C452.111 124.859 452.319 124.658 452.458 124.411C452.6 124.163 452.671 123.903 452.671 123.631V122.71C452.628 122.761 452.535 122.808 452.39 122.851C452.248 122.891 452.083 122.926 451.895 122.957C451.711 122.986 451.53 123.011 451.354 123.034C451.181 123.054 451.04 123.071 450.932 123.085C450.671 123.119 450.427 123.175 450.199 123.251C449.975 123.325 449.793 123.437 449.654 123.588C449.518 123.736 449.449 123.937 449.449 124.193C449.449 124.543 449.579 124.807 449.837 124.986C450.099 125.162 450.43 125.25 450.83 125.25Z" fill="#9C9A92"/>
</svg>
