<svg width="33" height="37" viewBox="0 0 33 37" fill="none" xmlns="http://www.w3.org/2000/svg">
<path d="M32.2779 4.5818V0.000400066C31.955 0.000400066 31.5368 0 30.6226 0L1.6557 0.000400066C0.741497 0.000400066 0.337697 0.000400066 0.000396729 0.000400066V4.5818C0.216797 4.5818 0.741497 4.5823 1.6557 4.5823L30.6226 4.5818C31.5368 4.5818 32.0348 4.5818 32.2779 4.5818Z" fill="white"/>
<path d="M32.2779 12.8504V8.269H1.65561C0.741405 8.269 0.277905 8.269 0.000305176 8.269V12.8504C0.264905 12.8504 0.741405 12.8504 1.65561 12.8504H32.2779Z" fill="white"/>
<path d="M32.5088 37V16.8179C32.5088 16.6546 31.5364 16.7102 30.6222 16.7102H1.6553C0.7411 16.7102 0 16.6547 0 16.8179V36.7057C0.2814 36.5435 15.3415 28.4939 16.1691 28.1079C16.6847 28.4051 29.8152 35.4464 32.5097 36.9993L32.5088 37Z" fill="white"/>
</svg>
